<?xml version="1.0" encoding="UTF-8" standalone="no"?>
<svg
   xmlns:dc="http://purl.org/dc/elements/1.1/"
   xmlns:cc="http://creativecommons.org/ns#"
   xmlns:rdf="http://www.w3.org/1999/02/22-rdf-syntax-ns#"
   xmlns:svg="http://www.w3.org/2000/svg"
   xmlns="http://www.w3.org/2000/svg"
   xmlns:sodipodi="http://sodipodi.sourceforge.net/DTD/sodipodi-0.dtd"
   xmlns:inkscape="http://www.inkscape.org/namespaces/inkscape"
   version="1.2"
   width="450"
   height="80"
   viewBox="0 0 72.27004 12.848003"
   id="svg2"
   inkscape:version="0.47 r22583"
   sodipodi:docname="Intervals.svg">
  <metadata
     id="metadata178">
    <rdf:RDF>
      <cc:Work
         rdf:about="">
        <dc:format>image/svg+xml</dc:format>
        <dc:type
           rdf:resource="http://purl.org/dc/dcmitype/StillImage" />
      </cc:Work>
    </rdf:RDF>
  </metadata>
  <defs
     id="defs176">
    <inkscape:perspective
       sodipodi:type="inkscape:persp3d"
       inkscape:vp_x="0 : 186.02362 : 1"
       inkscape:vp_y="0 : 1000 : 0"
       inkscape:vp_z="524.40942 : 186.02362 : 1"
       inkscape:persp3d-origin="262.20471 : 124.01575 : 1"
       id="perspective180" />
  </defs>
  <sodipodi:namedview
     pagecolor="#ffffff"
     bordercolor="#666666"
     borderopacity="1"
     objecttolerance="10"
     gridtolerance="10"
     guidetolerance="10"
     inkscape:pageopacity="0"
     inkscape:pageshadow="2"
     inkscape:window-width="1024"
     inkscape:window-height="528"
     id="namedview174"
     showgrid="false"
     inkscape:zoom="1.2686561"
     inkscape:cx="198.42517"
     inkscape:cy="-9.9618953"
     inkscape:window-x="0"
     inkscape:window-y="25"
     inkscape:window-maximized="1"
     inkscape:current-layer="svg2" />
  <!-- Page: 1/1 -->
  <text
     font-size="2.1995"
     id="text4"
     style="font-size:2.19950008px;text-anchor:start;fill:currentColor;font-family:'Century Schoolbook L,serif'"
     x="-6.2596002"
     y="1.5354692">
    <tspan
       id="tspan6" />
  </text>
  <rect
     x="4.8855071"
     y="8.3055992"
     width="2.97"
     height="0.2"
     ry="0.1"
     id="rect8"
     style="fill:currentColor" />
  <rect
     x="9.9726076"
     y="8.3055992"
     width="2.97"
     height="0.2"
     ry="0.1"
     id="rect10"
     style="fill:currentColor" />
  <rect
     x="15.612808"
     y="8.3055992"
     width="2.97"
     height="0.2"
     ry="0.1"
     id="rect12"
     style="fill:currentColor" />
  <rect
     x="21.348507"
     y="8.3055992"
     width="2.97"
     height="0.2"
     ry="0.1"
     id="rect14"
     style="fill:currentColor" />
  <rect
     x="26.340107"
     y="8.3055992"
     width="2.97"
     height="0.2"
     ry="0.1"
     id="rect16"
     style="fill:currentColor" />
  <rect
     x="30.948309"
     y="8.3055992"
     width="2.97"
     height="0.2"
     ry="0.1"
     id="rect18"
     style="fill:currentColor" />
  <rect
     x="36.103306"
     y="8.3055992"
     width="2.97"
     height="0.2"
     ry="0.1"
     id="rect20"
     style="fill:currentColor" />
  <rect
     x="40.711605"
     y="8.3055992"
     width="2.97"
     height="0.2"
     ry="0.1"
     id="rect22"
     style="fill:currentColor" />
  <rect
     x="45.798805"
     y="8.3055992"
     width="2.97"
     height="0.2"
     ry="0.1"
     id="rect24"
     style="fill:currentColor" />
  <rect
     x="50.790405"
     y="8.3055992"
     width="2.97"
     height="0.2"
     ry="0.1"
     id="rect26"
     style="fill:currentColor" />
  <rect
     x="55.877506"
     y="8.3055992"
     width="2.97"
     height="0.2"
     ry="0.1"
     id="rect28"
     style="fill:currentColor" />
  <rect
     x="60.869106"
     y="8.3055992"
     width="2.97"
     height="0.2"
     ry="0.1"
     id="rect30"
     style="fill:currentColor" />
  <rect
     x="65.477409"
     y="8.3055992"
     width="2.97"
     height="0.2"
     ry="0.1"
     id="rect32"
     style="fill:currentColor" />
  <line
     x1="1.3159072"
     y1="7.4055996"
     x2="71.209709"
     y2="7.4055996"
     id="line34"
     style="stroke:currentColor;stroke-width:0.1;stroke-linecap:round;stroke-linejoin:round" />
  <line
     x1="1.3159072"
     y1="6.4055996"
     x2="71.209709"
     y2="6.4055996"
     id="line36"
     style="stroke:currentColor;stroke-width:0.1;stroke-linecap:round;stroke-linejoin:round" />
  <line
     x1="1.3159072"
     y1="5.4055996"
     x2="71.209709"
     y2="5.4055996"
     id="line38"
     style="stroke:currentColor;stroke-width:0.1;stroke-linecap:round;stroke-linejoin:round" />
  <line
     x1="1.3159072"
     y1="4.4055996"
     x2="71.209709"
     y2="4.4055996"
     id="line40"
     style="stroke:currentColor;stroke-width:0.1;stroke-linecap:round;stroke-linejoin:round" />
  <line
     x1="1.3159072"
     y1="3.4055991"
     x2="71.209709"
     y2="3.4055991"
     id="line42"
     style="stroke:currentColor;stroke-width:0.1;stroke-linecap:round;stroke-linejoin:round" />
  <rect
     x="70.169708"
     y="3.3555994"
     width="0.19"
     height="4.0999999"
     ry="0"
     id="rect44"
     style="fill:currentColor" />
  <rect
     x="70.659706"
     y="3.3555994"
     width="0.60000002"
     height="4.0999999"
     ry="0"
     id="rect46"
     style="fill:currentColor" />
  <path
     d="m 52.145407,7.9575994 c -0.192,0 -0.276,0.152 -0.276,0.352 0,0.396 0.344,0.544 0.536,0.544 0.192,0 0.276,-0.152 0.276,-0.352 0,-0.396 -0.344,-0.544 -0.536,-0.544 z m 0.132,-0.104 c 0.568,0 0.988,0.256 0.988,0.552 0,0.324 -0.472,0.5519999 -0.988,0.5519999 -0.564,0 -0.992,-0.2559999 -0.992,-0.5519999 0,-0.324 0.476,-0.552 0.992,-0.552 z"
     id="path48"
     style="fill:currentColor" />
  <path
     d="m 52.145407,5.4575994 c -0.192,0 -0.276,0.152 -0.276,0.352 0,0.396 0.344,0.544 0.536,0.544 0.192,0 0.276,-0.152 0.276,-0.352 0,-0.396 -0.344,-0.544 -0.536,-0.544 z m 0.132,-0.104 c 0.568,0 0.988,0.256 0.988,0.552 0,0.324 -0.472,0.552 -0.988,0.552 -0.564,0 -0.992,-0.256 -0.992,-0.552 0,-0.324 0.476,-0.552 0.992,-0.552 z"
     id="path50"
     style="fill:currentColor" />
  <text
     font-size="2.4685"
     id="text52"
     style="font-size:2.4684999px;text-anchor:start;fill:currentColor;font-family:'Century Schoolbook L,serif'"
     x="50.431606"
     y="11.681101">
    <tspan
       id="tspan54">M6</tspan>
  </text>
  <path
     d="m 50.236707,4.4055994 c 0.032,-0.016 0.068,-0.028 0.104,-0.028 0.036,0 0.068,0.012 0.1,0.028 l -0.012,0.732 0.424,-0.08 0.012,0 c 0.04,0 0.072,0.028 0.072,0.068 l 0.028,2.28 c -0.032,0.016 -0.064,0.028 -0.1,0.028 -0.036,0 -0.068,-0.012 -0.1,-0.028 l 0.012,-0.732 -0.424,0.08 -0.012,0 c -0.04,0 -0.072,-0.028 -0.072,-0.068 z m 0.544,1.88 0.012,-0.828 -0.368,0.068 -0.012,0.828 z"
     id="path56"
     style="fill:currentColor" />
  <path
     d="m 57.232507,7.9575994 c -0.192,0 -0.276,0.152 -0.276,0.352 0,0.396 0.344,0.544 0.536,0.544 0.192,0 0.276,-0.152 0.276,-0.352 0,-0.396 -0.344,-0.544 -0.536,-0.544 z m 0.132,-0.104 c 0.568,0 0.988,0.256 0.988,0.552 0,0.324 -0.472,0.5519999 -0.988,0.5519999 -0.564,0 -0.992,-0.2559999 -0.992,-0.5519999 0,-0.324 0.476,-0.552 0.992,-0.552 z"
     id="path58"
     style="fill:currentColor" />
  <path
     d="m 57.232507,4.9575994 c -0.192,0 -0.276,0.152 -0.276,0.352 0,0.396 0.344,0.544 0.536,0.544 0.192,0 0.276,-0.152 0.276,-0.352 0,-0.396 -0.344,-0.544 -0.536,-0.544 z m 0.132,-0.104 c 0.568,0 0.988,0.256 0.988,0.552 0,0.324 -0.472,0.552 -0.988,0.552 -0.564,0 -0.992,-0.256 -0.992,-0.552 0,-0.324 0.476,-0.552 0.992,-0.552 z"
     id="path60"
     style="fill:currentColor" />
  <text
     font-size="2.4685"
     id="text62"
     style="font-size:2.4684999px;text-anchor:start;fill:currentColor;font-family:'Century Schoolbook L,serif'"
     x="55.587109"
     y="11.681101">
    <tspan
       id="tspan64">m7</tspan>
  </text>
  <path
     d="m 42.066607,7.9575994 c -0.192,0 -0.276,0.152 -0.276,0.352 0,0.396 0.344,0.544 0.536,0.544 0.192,0 0.276,-0.152 0.276,-0.352 0,-0.396 -0.344,-0.544 -0.536,-0.544 z m 0.132,-0.104 c 0.568,0 0.988,0.256 0.988,0.552 0,0.324 -0.472,0.5519999 -0.988,0.5519999 -0.564,0 -0.992,-0.2559999 -0.992,-0.5519999 0,-0.324 0.476,-0.552 0.992,-0.552 z"
     id="path66"
     style="fill:currentColor" />
  <path
     d="m 42.066607,5.9575994 c -0.192,0 -0.276,0.152 -0.276,0.352 0,0.396 0.344,0.544 0.536,0.544 0.192,0 0.276,-0.152 0.276,-0.352 0,-0.396 -0.344,-0.544 -0.536,-0.544 z m 0.132,-0.104 c 0.568,0 0.988,0.256 0.988,0.552 0,0.324 -0.472,0.552 -0.988,0.552 -0.564,0 -0.992,-0.256 -0.992,-0.552 0,-0.324 0.476,-0.552 0.992,-0.552 z"
     id="path68"
     style="fill:currentColor" />
  <text
     font-size="2.4685"
     id="text70"
     style="font-size:2.4684999px;text-anchor:start;fill:currentColor;font-family:'Century Schoolbook L,serif'"
     x="40.694305"
     y="11.681101">
    <tspan
       id="tspan72">P5</tspan>
  </text>
  <path
     d="m 47.153707,7.9575994 c -0.192,0 -0.276,0.152 -0.276,0.352 0,0.396 0.344,0.544 0.536,0.544 0.192,0 0.276,-0.152 0.276,-0.352 0,-0.396 -0.344,-0.544 -0.536,-0.544 z m 0.132,-0.104 c 0.568,0 0.988,0.256 0.988,0.552 0,0.324 -0.472,0.5519999 -0.988,0.5519999 -0.564,0 -0.992,-0.2559999 -0.992,-0.5519999 0,-0.324 0.476,-0.552 0.992,-0.552 z"
     id="path74"
     style="fill:currentColor" />
  <path
     d="m 47.153707,5.4575994 c -0.192,0 -0.276,0.152 -0.276,0.352 0,0.396 0.344,0.544 0.536,0.544 0.192,0 0.276,-0.152 0.276,-0.352 0,-0.396 -0.344,-0.544 -0.536,-0.544 z m 0.132,-0.104 c 0.568,0 0.988,0.256 0.988,0.552 0,0.324 -0.472,0.552 -0.988,0.552 -0.564,0 -0.992,-0.256 -0.992,-0.552 0,-0.324 0.476,-0.552 0.992,-0.552 z"
     id="path76"
     style="fill:currentColor" />
  <text
     font-size="2.4685"
     id="text78"
     style="font-size:2.4684999px;text-anchor:start;fill:currentColor;font-family:'Century Schoolbook L,serif'"
     x="45.508308"
     y="11.681101">
    <tspan
       id="tspan80">m6</tspan>
  </text>
  <path
     d="m 45.251707,5.7415994 -0.004,0.264 0,0.044 c 0,0.088 0.004,0.176 0.016,0.264 0.18,-0.152 0.372,-0.32 0.372,-0.556 0,-0.132 -0.056,-0.268 -0.172,-0.268 -0.124,0 -0.208,0.12 -0.212,0.252 z m -0.168,0.716 -0.048,-2.38 c 0.032,-0.02 0.072,-0.032 0.108,-0.032 0.036,0 0.076,0.012 0.108,0.032 l -0.028,1.38 c 0.1,-0.084 0.232,-0.136 0.364,-0.136 0.208,0 0.356,0.192 0.356,0.408 0,0.32 -0.344,0.468 -0.588,0.676 -0.06,0.052 -0.096,0.152 -0.18,0.152 -0.052,0 -0.092,-0.044 -0.092,-0.1 z"
     id="path82"
     style="fill:currentColor" />
  <path
     d="m 4.6179072,6.4175994 c 0,0.488 -0.328,0.848 -0.688,0.968 0.004,0.076 0.004,0.16 0.004,0.236 0,0.16 -0.008,0.312 -0.02,0.472 -0.044,0.488 -0.356,0.9319999 -0.82,0.9319999 -0.46,0 -0.848,-0.3439999 -0.848,-0.7959999 0,-0.232 0.212,-0.416 0.448,-0.416 0.216,0 0.38,0.192 0.38,0.416 0,0.208 -0.172,0.38 -0.38,0.38 -0.04,0 -0.08,-0.008 -0.12,-0.024 0.112,0.164 0.304,0.272 0.52,0.272 0.376,0 0.616,-0.38 0.652,-0.784 0.012,-0.152 0.02,-0.304 0.02,-0.456 0,-0.064 0,-0.124 -0.004,-0.188 -0.096,0.016 -0.196,0.028 -0.296,0.028 -0.776,0 -1.4,-0.64 -1.4,-1.42 0,-0.736 0.504,-1.304 0.956,-1.884 -0.168,-0.516 -0.272,-0.896 -0.272,-1.464 0,-0.776 0.54,-1.28 0.608,-1.28 0.12,0 0.66,0.828 0.66,1.496 0,0.608 -0.34,1.096 -0.712,1.572 0.096,0.292 0.188,0.584 0.272,0.88 0.636,0.004 1.04,0.524 1.04,1.06 z m -0.696,0.8 c 0.228,-0.088 0.436,-0.328 0.436,-0.656 0,-0.356 -0.256,-0.708 -0.668,-0.768 0.108,0.44 0.2,0.94 0.232,1.424 z m -0.648,-0.292 c -0.068,0 -0.556,-0.232 -0.556,-0.764 0,-0.364 0.248,-0.72 0.684,-0.792 -0.068,-0.244 -0.144,-0.488 -0.224,-0.732 -0.412,0.524 -0.824,1.048 -0.824,1.716 0,0.516 0.568,0.932 1.112,0.932 0.096,0 0.196,-0.008 0.288,-0.024 -0.032,-0.504 -0.128,-1.024 -0.24,-1.476 -0.344,0.02 -0.536,0.244 -0.536,0.488 0,0.184 0.108,0.376 0.352,0.5 0.02,0.02 0.032,0.044 0.032,0.064 0,0.044 -0.04,0.088 -0.088,0.088 z m 0.3,-4.936 c -0.384,0.244 -0.62,0.676 -0.62,1.132 0,0.176 0.06,0.448 0.192,0.868 0.32,-0.424 0.584,-0.868 0.584,-1.404 0,-0.26 -0.028,-0.368 -0.156,-0.596 z"
     id="path84"
     style="fill:currentColor" />
  <path
     d="m 55.330507,5.2415994 -0.004,0.264 0,0.044 c 0,0.088 0.004,0.176 0.016,0.264 0.18,-0.152 0.372,-0.32 0.372,-0.556 0,-0.132 -0.056,-0.268 -0.172,-0.268 -0.124,0 -0.208,0.12 -0.212,0.252 z m -0.168,0.716 -0.048,-2.38 c 0.032,-0.02 0.072,-0.032 0.108,-0.032 0.036,0 0.076,0.012 0.108,0.032 l -0.028,1.38 c 0.1,-0.084 0.232,-0.136 0.364,-0.136 0.208,0 0.356,0.192 0.356,0.408 0,0.32 -0.344,0.468 -0.588,0.676 -0.06,0.052 -0.096,0.152 -0.18,0.152 -0.052,0 -0.092,-0.044 -0.092,-0.1 z"
     id="path86"
     style="fill:currentColor" />
  <path
     d="m 62.224107,4.9575994 c -0.192,0 -0.276,0.152 -0.276,0.352 0,0.396 0.344,0.544 0.536,0.544 0.192,0 0.276,-0.152 0.276,-0.352 0,-0.396 -0.344,-0.544 -0.536,-0.544 z m 0.132,-0.104 c 0.568,0 0.988,0.256 0.988,0.552 0,0.324 -0.472,0.552 -0.988,0.552 -0.564,0 -0.992,-0.256 -0.992,-0.552 0,-0.324 0.476,-0.552 0.992,-0.552 z"
     id="path88"
     style="fill:currentColor" />
  <text
     font-size="2.4685"
     id="text90"
     style="font-size:2.4684999px;text-anchor:start;fill:currentColor;font-family:'Century Schoolbook L,serif'"
     x="60.510406"
     y="11.681101">
    <tspan
       id="tspan92">M7</tspan>
  </text>
  <path
     d="m 60.315407,3.9055994 c 0.032,-0.016 0.068,-0.028 0.104,-0.028 0.036,0 0.068,0.012 0.1,0.028 l -0.012,0.732 0.424,-0.08 0.012,0 c 0.04,0 0.072,0.028 0.072,0.068 l 0.028,2.28 c -0.032,0.016 -0.064,0.028 -0.1,0.028 -0.036,0 -0.068,-0.012 -0.1,-0.028 l 0.012,-0.732 -0.424,0.08 -0.012,0 c -0.04,0 -0.072,-0.028 -0.072,-0.068 z m 0.544,1.88 0.012,-0.828 -0.368,0.068 -0.012,0.828 z"
     id="path94"
     style="fill:currentColor" />
  <path
     d="m 66.832407,7.9575994 c -0.192,0 -0.276,0.152 -0.276,0.352 0,0.396 0.344,0.544 0.536,0.544 0.192,0 0.276,-0.152 0.276,-0.352 0,-0.396 -0.344,-0.544 -0.536,-0.544 z m 0.132,-0.104 c 0.568,0 0.988,0.256 0.988,0.552 0,0.324 -0.472,0.5519999 -0.988,0.5519999 -0.564,0 -0.992,-0.2559999 -0.992,-0.5519999 0,-0.324 0.476,-0.552 0.992,-0.552 z"
     id="path96"
     style="fill:currentColor" />
  <path
     d="m 66.832407,4.4575994 c -0.192,0 -0.276,0.152 -0.276,0.352 0,0.396 0.344,0.544 0.536,0.544 0.192,0 0.276,-0.152 0.276,-0.352 0,-0.396 -0.344,-0.544 -0.536,-0.544 z m 0.132,-0.104 c 0.568,0 0.988,0.256 0.988,0.552 0,0.324 -0.472,0.552 -0.988,0.552 -0.564,0 -0.992,-0.256 -0.992,-0.552 0,-0.324 0.476,-0.552 0.992,-0.552 z"
     id="path98"
     style="fill:currentColor" />
  <text
     font-size="2.4685"
     id="text100"
     style="font-size:2.4684999px;text-anchor:start;fill:currentColor;font-family:'Century Schoolbook L,serif'"
     x="65.460106"
     y="11.681101">
    <tspan
       id="tspan102">P8</tspan>
  </text>
  <path
     d="m 9.4256072,7.7415994 -0.004,0.264 0,0.044 c 0,0.088 0.004,0.176 0.016,0.264 0.18,-0.152 0.372,-0.32 0.372,-0.556 0,-0.132 -0.056,-0.268 -0.172,-0.268 -0.124,0 -0.208,0.12 -0.212,0.252 z m -0.168,0.716 -0.048,-2.38 c 0.032,-0.02 0.072,-0.032 0.108,-0.032 0.036,0 0.076,0.012 0.108,0.032 l -0.028,1.38 c 0.1,-0.084 0.232,-0.136 0.364,-0.136 0.208,0 0.3559998,0.192 0.3559998,0.408 0,0.32 -0.3439998,0.468 -0.5879998,0.676 -0.06,0.052 -0.096,0.152 -0.18,0.152 -0.052,0 -0.092,-0.044 -0.092,-0.1 z"
     id="path104"
     style="fill:currentColor" />
  <path
     d="m 16.967807,7.9575994 c -0.192,0 -0.276,0.152 -0.276,0.352 0,0.396 0.344,0.544 0.536,0.544 0.192,0 0.276,-0.152 0.276,-0.352 0,-0.396 -0.344,-0.544 -0.536,-0.544 z m 0.132,-0.104 c 0.568,0 0.988,0.256 0.988,0.552 0,0.324 -0.472,0.5519999 -0.988,0.5519999 -0.564,0 -0.992,-0.2559999 -0.992,-0.5519999 0,-0.324 0.476,-0.552 0.992,-0.552 z"
     id="path106"
     style="fill:currentColor" />
  <path
     d="m 18.687807,7.4575994 c -0.192,0 -0.276,0.152 -0.276,0.352 0,0.396 0.344,0.544 0.536,0.544 0.192,0 0.276,-0.152 0.276,-0.352 0,-0.396 -0.344,-0.544 -0.536,-0.544 z m 0.132,-0.104 c 0.568,0 0.988,0.256 0.988,0.552 0,0.324 -0.472,0.552 -0.988,0.552 -0.564,0 -0.992,-0.256 -0.992,-0.552 0,-0.324 0.476,-0.552 0.992,-0.552 z"
     id="path108"
     style="fill:currentColor" />
  <text
     font-size="2.4685"
     id="text110"
     style="font-size:2.4684999px;text-anchor:start;fill:currentColor;font-family:'Century Schoolbook L,serif'"
     x="15.254007"
     y="11.681101">
    <tspan
       id="tspan112">M2</tspan>
  </text>
  <path
     d="m 15.059107,6.4055994 c 0.032,-0.016 0.068,-0.028 0.104,-0.028 0.036,0 0.068,0.012 0.1,0.028 l -0.012,0.732 0.424,-0.08 0.012,0 c 0.04,0 0.072,0.028 0.072,0.068 l 0.028,2.2799999 c -0.032,0.016 -0.064,0.028 -0.1,0.028 -0.036,0 -0.068,-0.012 -0.1,-0.028 l 0.012,-0.7319999 -0.424,0.08 -0.012,0 c -0.04,0 -0.072,-0.028 -0.072,-0.068 z m 0.544,1.88 0.012,-0.828 -0.368,0.068 -0.012,0.828 z"
     id="path114"
     style="fill:currentColor" />
  <path
     d="m 22.703407,7.9575994 c -0.192,0 -0.276,0.152 -0.276,0.352 0,0.396 0.344,0.544 0.536,0.544 0.192,0 0.276,-0.152 0.276,-0.352 0,-0.396 -0.344,-0.544 -0.536,-0.544 z m 0.132,-0.104 c 0.568,0 0.988,0.256 0.988,0.552 0,0.324 -0.472,0.5519999 -0.988,0.5519999 -0.564,0 -0.992,-0.2559999 -0.992,-0.5519999 0,-0.324 0.476,-0.552 0.992,-0.552 z"
     id="path116"
     style="fill:currentColor" />
  <path
     d="m 6.2405072,7.9575994 c -0.192,0 -0.276,0.152 -0.276,0.352 0,0.396 0.344,0.544 0.536,0.544 0.192,0 0.276,-0.152 0.276,-0.352 0,-0.396 -0.344,-0.544 -0.536,-0.544 z m 0.132,-0.104 c 0.568,0 0.988,0.256 0.988,0.552 0,0.324 -0.472,0.5519999 -0.988,0.5519999 -0.564,0 -0.992,-0.2559999 -0.992,-0.5519999 0,-0.324 0.476,-0.552 0.992,-0.552 z"
     id="path118"
     style="fill:currentColor" />
  <text
     font-size="2.4685"
     id="text120"
     style="font-size:2.4684999px;text-anchor:start;fill:currentColor;font-family:'Century Schoolbook L,serif'"
     x="5.3632073"
     y="11.681101">
    <tspan
       id="tspan122">U</tspan>
  </text>
  <path
     d="m 11.327607,7.9575994 c -0.192,0 -0.276,0.152 -0.276,0.352 0,0.396 0.344,0.544 0.536,0.544 0.192,0 0.276,-0.152 0.276,-0.352 0,-0.396 -0.344,-0.544 -0.536,-0.544 z m 0.132,-0.104 c 0.568,0 0.988,0.256 0.988,0.552 0,0.324 -0.472,0.5519999 -0.988,0.5519999 -0.564,0 -0.992,-0.2559999 -0.992,-0.5519999 0,-0.324 0.476,-0.552 0.992,-0.552 z"
     id="path124"
     style="fill:currentColor" />
  <path
     d="m 13.047607,7.4575994 c -0.192,0 -0.276,0.152 -0.276,0.352 0,0.396 0.344,0.544 0.536,0.544 0.192,0 0.276,-0.152 0.276,-0.352 0,-0.396 -0.344,-0.544 -0.536,-0.544 z m 0.132,-0.104 c 0.568,0 0.988,0.256 0.988,0.552 0,0.324 -0.472,0.552 -0.988,0.552 -0.564,0 -0.992,-0.256 -0.992,-0.552 0,-0.324 0.476,-0.552 0.992,-0.552 z"
     id="path126"
     style="fill:currentColor" />
  <text
     font-size="2.4685"
     id="text128"
     style="font-size:2.4684999px;text-anchor:start;fill:currentColor;font-family:'Century Schoolbook L,serif'"
     x="9.6822071"
     y="11.681101">
    <tspan
       id="tspan130">m2</tspan>
  </text>
  <path
     d="m 62.224107,7.9575994 c -0.192,0 -0.276,0.152 -0.276,0.352 0,0.396 0.344,0.544 0.536,0.544 0.192,0 0.276,-0.152 0.276,-0.352 0,-0.396 -0.344,-0.544 -0.536,-0.544 z m 0.132,-0.104 c 0.568,0 0.988,0.256 0.988,0.552 0,0.324 -0.472,0.5519999 -0.988,0.5519999 -0.564,0 -0.992,-0.2559999 -0.992,-0.5519999 0,-0.324 0.476,-0.552 0.992,-0.552 z"
     id="path132"
     style="fill:currentColor" />
  <path
     d="m 32.303307,7.9575994 c -0.192,0 -0.276,0.152 -0.276,0.352 0,0.396 0.344,0.544 0.536,0.544 0.192,0 0.276,-0.152 0.276,-0.352 0,-0.396 -0.344,-0.544 -0.536,-0.544 z m 0.132,-0.104 c 0.568,0 0.988,0.256 0.988,0.552 0,0.324 -0.472,0.5519999 -0.988,0.5519999 -0.564,0 -0.992,-0.2559999 -0.992,-0.5519999 0,-0.324 0.476,-0.552 0.992,-0.552 z"
     id="path134"
     style="fill:currentColor" />
  <path
     d="m 32.303307,6.4575994 c -0.192,0 -0.276,0.152 -0.276,0.352 0,0.396 0.344,0.544 0.536,0.544 0.192,0 0.276,-0.152 0.276,-0.352 0,-0.396 -0.344,-0.544 -0.536,-0.544 z m 0.132,-0.104 c 0.568,0 0.988,0.256 0.988,0.552 0,0.324 -0.472,0.552 -0.988,0.552 -0.564,0 -0.992,-0.256 -0.992,-0.552 0,-0.324 0.476,-0.552 0.992,-0.552 z"
     id="path136"
     style="fill:currentColor" />
  <text
     font-size="2.4685"
     id="text138"
     style="font-size:2.4684999px;text-anchor:start;fill:currentColor;font-family:'Century Schoolbook L,serif'"
     x="30.931007"
     y="11.681101">
    <tspan
       id="tspan140">P4</tspan>
  </text>
  <path
     d="m 37.458307,7.9575994 c -0.192,0 -0.276,0.152 -0.276,0.352 0,0.396 0.344,0.544 0.536,0.544 0.192,0 0.276,-0.152 0.276,-0.352 0,-0.396 -0.344,-0.544 -0.536,-0.544 z m 0.132,-0.104 c 0.568,0 0.988,0.256 0.988,0.552 0,0.324 -0.472,0.5519999 -0.988,0.5519999 -0.564,0 -0.992,-0.2559999 -0.992,-0.5519999 0,-0.324 0.476,-0.552 0.992,-0.552 z"
     id="path142"
     style="fill:currentColor" />
  <path
     d="m 37.458307,6.4575994 c -0.192,0 -0.276,0.152 -0.276,0.352 0,0.396 0.344,0.544 0.536,0.544 0.192,0 0.276,-0.152 0.276,-0.352 0,-0.396 -0.344,-0.544 -0.536,-0.544 z m 0.132,-0.104 c 0.568,0 0.988,0.256 0.988,0.552 0,0.324 -0.472,0.552 -0.988,0.552 -0.564,0 -0.992,-0.256 -0.992,-0.552 0,-0.324 0.476,-0.552 0.992,-0.552 z"
     id="path144"
     style="fill:currentColor" />
  <text
     font-size="2.4685"
     id="text146"
     style="font-size:2.4684999px;text-anchor:start;fill:currentColor;font-family:'Century Schoolbook L,serif'"
     x="35.949509"
     y="11.681101">
    <tspan
       id="tspan148">TT</tspan>
  </text>
  <path
     d="m 36.012307,8.1535994 c 0,0.04 -0.032,0.076 -0.072,0.076 -0.04,0 -0.076,-0.036 -0.076,-0.076 l 0,-0.58 -0.332,0.124 0,0.632 c 0,0.04 -0.036,0.076 -0.076,0.076 -0.04,0 -0.072,-0.036 -0.072,-0.076 l 0,-0.58 -0.128,0.048 c -0.008,0.004 -0.02,0.004 -0.028,0.004 -0.044,0 -0.08,-0.036 -0.08,-0.08 l 0,-0.24 c 0,-0.032 0.02,-0.064 0.052,-0.076 l 0.184,-0.064 0,-0.64 -0.128,0.044 c -0.008,0.004 -0.02,0.004 -0.028,0.004 -0.044,0 -0.08,-0.036 -0.08,-0.08 l 0,-0.24 c 0,-0.032 0.02,-0.06 0.052,-0.072 l 0.184,-0.068 0,-0.632 c 0,-0.04 0.032,-0.076 0.072,-0.076 0.04,0 0.076,0.036 0.076,0.076 l 0,0.58 0.332,-0.124 0,-0.632 c 0,-0.04 0.036,-0.076 0.076,-0.076 0.04,0 0.072,0.036 0.072,0.076 l 0,0.58 0.128,-0.048 c 0.008,-0.004 0.02,-0.004 0.028,-0.004 0.044,0 0.08,0.036 0.08,0.08 l 0,0.24 c 0,0.032 -0.02,0.064 -0.052,0.076 l -0.184,0.064 0,0.64 0.128,-0.044 c 0.008,-0.004 0.02,-0.004 0.028,-0.004 0.044,0 0.08,0.036 0.08,0.08 l 0,0.24 c 0,0.032 -0.02,0.06 -0.052,0.072 l -0.184,0.068 0,0.632 z m -0.148,-1.628 -0.332,0.12 0,0.64 0.332,-0.12 0,-0.64 z"
     id="path150"
     style="fill:currentColor" />
  <path
     d="m 22.703407,6.9575994 c -0.192,0 -0.276,0.152 -0.276,0.352 0,0.396 0.344,0.544 0.536,0.544 0.192,0 0.276,-0.152 0.276,-0.352 0,-0.396 -0.344,-0.544 -0.536,-0.544 z m 0.132,-0.104 c 0.568,0 0.988,0.256 0.988,0.552 0,0.324 -0.472,0.552 -0.988,0.552 -0.564,0 -0.992,-0.256 -0.992,-0.552 0,-0.324 0.476,-0.552 0.992,-0.552 z"
     id="path152"
     style="fill:currentColor" />
  <text
     font-size="2.4685"
     id="text154"
     style="font-size:2.4684999px;text-anchor:start;fill:currentColor;font-family:'Century Schoolbook L,serif'"
     x="21.058008"
     y="11.681101">
    <tspan
       id="tspan156">m3</tspan>
  </text>
  <path
     d="m 20.801407,7.2415994 -0.004,0.264 0,0.044 c 0,0.088 0.004,0.176 0.016,0.264 0.18,-0.152 0.372,-0.32 0.372,-0.556 0,-0.132 -0.056,-0.268 -0.172,-0.268 -0.124,0 -0.208,0.12 -0.212,0.252 z m -0.168,0.716 -0.048,-2.38 c 0.032,-0.02 0.072,-0.032 0.108,-0.032 0.036,0 0.076,0.012 0.108,0.032 l -0.028,1.38 c 0.1,-0.084 0.232,-0.136 0.364,-0.136 0.208,0 0.356,0.192 0.356,0.408 0,0.32 -0.344,0.468 -0.588,0.676 -0.06,0.052 -0.096,0.152 -0.18,0.152 -0.052,0 -0.092,-0.044 -0.092,-0.1 z"
     id="path158"
     style="fill:currentColor" />
  <path
     d="m 27.695107,7.9575994 c -0.192,0 -0.276,0.152 -0.276,0.352 0,0.396 0.344,0.544 0.536,0.544 0.192,0 0.276,-0.152 0.276,-0.352 0,-0.396 -0.344,-0.544 -0.536,-0.544 z m 0.132,-0.104 c 0.568,0 0.988,0.256 0.988,0.552 0,0.324 -0.472,0.5519999 -0.988,0.5519999 -0.564,0 -0.992,-0.2559999 -0.992,-0.5519999 0,-0.324 0.476,-0.552 0.992,-0.552 z"
     id="path160"
     style="fill:currentColor" />
  <path
     d="m 27.695107,6.9575994 c -0.192,0 -0.276,0.152 -0.276,0.352 0,0.396 0.344,0.544 0.536,0.544 0.192,0 0.276,-0.152 0.276,-0.352 0,-0.396 -0.344,-0.544 -0.536,-0.544 z m 0.132,-0.104 c 0.568,0 0.988,0.256 0.988,0.552 0,0.324 -0.472,0.552 -0.988,0.552 -0.564,0 -0.992,-0.256 -0.992,-0.552 0,-0.324 0.476,-0.552 0.992,-0.552 z"
     id="path162"
     style="fill:currentColor" />
  <text
     font-size="2.4685"
     id="text164"
     style="font-size:2.4684999px;text-anchor:start;fill:currentColor;font-family:'Century Schoolbook L,serif'"
     x="25.981308"
     y="11.681101">
    <tspan
       id="tspan166">M3</tspan>
  </text>
  <path
     d="m 25.786407,5.9055994 c 0.032,-0.016 0.068,-0.028 0.104,-0.028 0.036,0 0.068,0.012 0.1,0.028 l -0.012,0.732 0.424,-0.08 0.012,0 c 0.04,0 0.072,0.028 0.072,0.068 l 0.028,2.2799999 c -0.032,0.016 -0.064,0.028 -0.1,0.028 -0.036,0 -0.068,-0.012 -0.1,-0.028 l 0.012,-0.7319999 -0.424,0.08 -0.012,0 c -0.04,0 -0.072,-0.028 -0.072,-0.068 z m 0.544,1.88 0.012,-0.828 -0.368,0.068 -0.012,0.828 z"
     id="path168"
     style="fill:currentColor" />
  <text
     font-size="2.1995"
     id="text170"
     style="font-size:2.19950008px;text-anchor:start;fill:currentColor;font-family:'Century Schoolbook L,serif'"
     x="31.8671"
     y="59.010067">
    <tspan
       id="tspan172" />
  </text>
</svg>
