<?xml version="1.0" encoding="UTF-8"?>
<!DOCTYPE svg PUBLIC "-//W3C//DTD SVG 1.0//EN" "http://www.w3.org/TR/2001/REC-SVG-20010904/DTD/svg10.dtd">
<svg xmlns:dc="http://purl.org/dc/elements/1.1/" xmlns:cc="http://web.resource.org/cc/" xmlns:rdf="http://www.w3.org/1999/02/22-rdf-syntax-ns#" xmlns:svg="http://www.w3.org/2000/svg" xmlns="http://www.w3.org/2000/svg" width="140" height="100">
<polygon points="0,0 15,0 15,70 20,70 20,100 0,100" id="C" style="fill:#BBBBFF; stroke:#000000;stroke-width:1"/>
<polygon points="15,0 15,70 25,70 25,0" id="Db" style="fill:#000000; stroke:#000000;stroke-width:1"/>
<polygon points="25,0 35,0 35,70 40,70 40,100 20,100 20,70 25,70" id="D" style="fill:#FFFFFF; stroke:#000000;stroke-width:1"/>
<polygon points="35,0 35,70 45,70 45,0" id="Eb" style="fill:#000000; stroke:#000000;stroke-width:1"/>
<polygon points="45,0 60,0 60,100 40,100 40,70 45,70" id="E" style="fill:#BBBBFF; stroke:#000000;stroke-width:1"/>
<polygon points="60,0 75,0 75,70 80,70 80,100 60,100" id="F" style="fill:#FFFFFF; stroke:#000000;stroke-width:1"/>
<polygon points="75,0 75,70 85,70 85,0" id="Gb" style="fill:#000000; stroke:#000000;stroke-width:1"/>
<polygon points="85,0 95,0 95,70 100,70 100,100 80,100 80,70 85,70" id="G" style="fill:#BBBBFF; stroke:#000000;stroke-width:1"/>
<polygon points="95,0 95,70 105,70 105,0" id="Ab" style="fill:#000000; stroke:#000000;stroke-width:1"/>
<polygon points="105,0 115,0 115,70 120,70 120,100 100,100 100,70 105,70" id="A" style="fill:#FFFFFF; stroke:#000000;stroke-width:1"/>
<polygon points="115,0 115,70 125,70 125,0"	id="Bb" style="fill:#000000; stroke:#000000;stroke-width:1"/>
<polygon points="125,0 140,0 140,100 120,100 120,70 125,70" id="B" style="fill:#FFFFFF; stroke:#000000;stroke-width:1"/>
</svg>